<?xml version="1.0" encoding="UTF-8" standalone="no"?>
<!DOCTYPE svg PUBLIC "-//W3C//DTD SVG 1.1//EN"
 "http://www.w3.org/Graphics/SVG/1.1/DTD/svg11.dtd">
<!-- Generated by graphviz version 2.30.1 (20180420.1509)
 -->
<!-- Title: graphname Pages: 1 -->
<svg width="310pt" height="404pt"
 viewBox="0.00 0.00 310.00 404.00" xmlns="http://www.w3.org/2000/svg" xmlns:xlink="http://www.w3.org/1999/xlink">
<g id="graph0" class="graph" transform="scale(1 1) rotate(0) translate(4 400)">
<title>graphname</title>
<polygon fill="white" stroke="white" points="-4,5 -4,-400 307,-400 307,5 -4,5"/>
<!-- google_samplesheet -->
<g id="node1" class="node"><title>google_samplesheet</title>
<ellipse fill="none" stroke="black" cx="151" cy="-378" rx="81.3398" ry="18"/>
<text text-anchor="middle" x="151" y="-374.3" font-family="Times,serif" font-size="14.00">google_samplesheet</text>
</g>
<!-- converter_google_to_fastq_samplesheet -->
<g id="node2" class="node"><title>converter_google_to_fastq_samplesheet</title>
<ellipse fill="none" stroke="black" cx="151" cy="-306" rx="151.155" ry="18"/>
<text text-anchor="middle" x="151" y="-302.3" font-family="Times,serif" font-size="14.00">converter_google_to_fastq_samplesheet</text>
</g>
<!-- google_samplesheet&#45;&gt;converter_google_to_fastq_samplesheet -->
<g id="edge1" class="edge"><title>google_samplesheet&#45;&gt;converter_google_to_fastq_samplesheet</title>
<path fill="none" stroke="black" d="M151,-359.697C151,-351.983 151,-342.712 151,-334.112"/>
<polygon fill="black" stroke="black" points="154.5,-334.104 151,-324.104 147.5,-334.104 154.5,-334.104"/>
</g>
<!-- tracker_download_srr_fastqs -->
<g id="node3" class="node"><title>tracker_download_srr_fastqs</title>
<ellipse fill="none" stroke="black" cx="151" cy="-234" rx="112.16" ry="18"/>
<text text-anchor="middle" x="151" y="-230.3" font-family="Times,serif" font-size="14.00">tracker_download_srr_fastqs</text>
</g>
<!-- converter_google_to_fastq_samplesheet&#45;&gt;tracker_download_srr_fastqs -->
<g id="edge2" class="edge"><title>converter_google_to_fastq_samplesheet&#45;&gt;tracker_download_srr_fastqs</title>
<path fill="none" stroke="black" d="M151,-287.697C151,-279.983 151,-270.712 151,-262.112"/>
<polygon fill="black" stroke="black" points="154.5,-262.104 151,-252.104 147.5,-262.104 154.5,-262.104"/>
</g>
<!-- tracker_split_fastqs -->
<g id="node4" class="node"><title>tracker_split_fastqs</title>
<ellipse fill="none" stroke="black" cx="151" cy="-162" rx="78.9404" ry="18"/>
<text text-anchor="middle" x="151" y="-158.3" font-family="Times,serif" font-size="14.00">tracker_split_fastqs</text>
</g>
<!-- tracker_download_srr_fastqs&#45;&gt;tracker_split_fastqs -->
<g id="edge3" class="edge"><title>tracker_download_srr_fastqs&#45;&gt;tracker_split_fastqs</title>
<path fill="none" stroke="black" d="M151,-215.697C151,-207.983 151,-198.712 151,-190.112"/>
<polygon fill="black" stroke="black" points="154.5,-190.104 151,-180.104 147.5,-190.104 154.5,-190.104"/>
</g>
<!-- converter_fastq_to_hicpro_samplesheet -->
<g id="node5" class="node"><title>converter_fastq_to_hicpro_samplesheet</title>
<ellipse fill="none" stroke="black" cx="151" cy="-90" rx="150.205" ry="18"/>
<text text-anchor="middle" x="151" y="-86.3" font-family="Times,serif" font-size="14.00">converter_fastq_to_hicpro_samplesheet</text>
</g>
<!-- tracker_split_fastqs&#45;&gt;converter_fastq_to_hicpro_samplesheet -->
<g id="edge4" class="edge"><title>tracker_split_fastqs&#45;&gt;converter_fastq_to_hicpro_samplesheet</title>
<path fill="none" stroke="black" d="M151,-143.697C151,-135.983 151,-126.712 151,-118.112"/>
<polygon fill="black" stroke="black" points="154.5,-118.104 151,-108.104 147.5,-118.104 154.5,-118.104"/>
</g>
<!-- tracker_run_hicpro_ipynb -->
<g id="node6" class="node"><title>tracker_run_hicpro_ipynb</title>
<ellipse fill="none" stroke="black" cx="151" cy="-18" rx="102.061" ry="18"/>
<text text-anchor="middle" x="151" y="-14.3" font-family="Times,serif" font-size="14.00">tracker_run_hicpro_ipynb</text>
</g>
<!-- converter_fastq_to_hicpro_samplesheet&#45;&gt;tracker_run_hicpro_ipynb -->
<g id="edge5" class="edge"><title>converter_fastq_to_hicpro_samplesheet&#45;&gt;tracker_run_hicpro_ipynb</title>
<path fill="none" stroke="black" d="M151,-71.6966C151,-63.9827 151,-54.7125 151,-46.1124"/>
<polygon fill="black" stroke="black" points="154.5,-46.1043 151,-36.1043 147.5,-46.1044 154.5,-46.1043"/>
</g>
</g>
</svg>
